<svg xmlns="http://www.w3.org/2000/svg" width="450.688" height="415" viewBox="0 0 450.688 415">
  <defs>
    <style>
      .cls-1 {
        fill: #fff;
      }

      .cls-1, .cls-2 {
        stroke: #010101;
        stroke-width: 14px;
        fill-rule: evenodd;
      }

      .cls-2 {
        fill: #bebebe;
      }
    </style>
  </defs>
  <path id="Rounded_Rectangle_1_copy_2" data-name="Rounded Rectangle 1 copy 2" class="cls-1" d="M511.08,326.6c6.636,10.35,13.118,24.384,12.592,39.815-1.435,42.157-51.03,58.91-53.527,101.976-1.135,19.561,6.605,39.166,11.276,57.869q12.9,49.313,25.792,98.634c7.606,27.9,5.57,60.487-25.59,73.009-29.846,11.994-49.793-13.212-63.309-36.145L325.421,504.144l-29.949-50.815a53.926,53.926,0,0,1,19.16-73.882L437.1,307.463A54.08,54.08,0,0,1,511.08,326.6" transform="translate(-281 -293)"/>
  <path id="Rounded_Rectangle_1_copy_3" data-name="Rounded Rectangle 1 copy 3" class="cls-2" d="M627.725,365.72c2.4,12.059,3.32,27.493-2.8,41.677-16.709,38.749-68.989,36.3-87.018,75.505-8.189,17.809-8.133,38.891-10.6,58.016L515.35,642.2c-3.093,28.758-16.872,58.377-50.447,58.694-32.159.3-41.537-30.442-45.757-56.729l-29-180.658c-11.24-70.01-9.352-58.245-9.352-58.245a53.978,53.978,0,0,1,44.779-61.849l140.259-22.458a54.033,54.033,0,0,1,61.9,44.769" transform="translate(-281 -293)"/>
  <path id="Rounded_Rectangle_1_copy_4" data-name="Rounded Rectangle 1 copy 4" class="cls-1" d="M723.375,445.488c-2.228,12.085-7.084,26.756-18.011,37.67-29.851,29.817-77.5,8.246-108.748,38-14.193,13.516-21.938,33.114-31.307,49.961q-24.277,44.814-48.562,89.635c-13.508,25.564-37.26,47.984-68.563,35.888-29.982-11.584-27.321-43.6-21.519-69.562,15.38-68.835,24.422-109.3,39.875-178.463S479.4,391.083,479.4,391.083a54,54,0,0,1,64.466-40.909l138.58,30.9a53.949,53.949,0,0,1,40.933,64.412" transform="translate(-281 -293)"/>
</svg>
